<?xml version="1.0" encoding="utf-8"?>
<!-- Generator: Adobe Illustrator 16.0.0, SVG Export Plug-In . SVG Version: 6.00 Build 0)  -->
<!DOCTYPE svg PUBLIC "-//W3C//DTD SVG 1.1//EN" "http://www.w3.org/Graphics/SVG/1.1/DTD/svg11.dtd">
<svg version="1.1" id="Layer_1" xmlns="http://www.w3.org/2000/svg" xmlns:xlink="http://www.w3.org/1999/xlink" x="0px" y="0px"
	 width="1024px" height="768px" viewBox="0 0 1024 768" enable-background="new 0 0 1024 768" xml:space="preserve">
<title>Layer 1</title>
<g id="layer1">
	
		<path id="path3202" fill="#D7E6F4" stroke="#CBE0F4" stroke-width="4" stroke-linecap="round" stroke-linejoin="round" stroke-miterlimit="5" d="
		M240.373,271.218c-25.802,0-46.896,14.138-48.415,31.951c-4.244-2.261-9.523-3.616-15.263-3.616
		c-13.952,0-25.271,7.931-25.271,17.707c0,9.623,10.963,17.442,24.614,17.685c-1.544,2.872-2.377,6-2.377,9.248
		c0,14.468,16.757,26.21,37.406,26.21c10.277,0,19.572-2.921,26.334-7.626c8.607,4.759,19.468,7.626,31.276,7.626
		c23.092,0,42.599-10.877,48.634-25.706c5.912,13.238,23.547,22.857,44.38,22.857c25.672,0,46.508-14.6,46.508-32.587
		c0-17.987-20.836-32.587-46.508-32.587c-0.274,0-0.539,0.019-0.812,0.022c-3.738-12.939-20.062-22.682-39.627-22.682
		c-14.995,0-28.078,5.743-35.061,14.245C279.56,280.719,261.535,271.218,240.373,271.218z"/>
	
		<path id="path3202_1_" fill="#D7E6F4" stroke="#CBE0F4" stroke-width="4" stroke-linecap="round" stroke-linejoin="round" stroke-miterlimit="5" d="
		M817.808,49.941c-25.802,0-46.896,14.138-48.415,31.951c-4.244-2.261-9.523-3.616-15.263-3.616
		c-13.952,0-25.271,7.931-25.271,17.707c0,9.623,10.963,17.442,24.613,17.685c-1.543,2.872-2.377,6-2.377,9.248
		c0,14.468,16.758,26.21,37.406,26.21c10.277,0,19.572-2.921,26.334-7.626c8.607,4.759,19.469,7.626,31.277,7.626
		c23.092,0,42.598-10.877,48.633-25.706c5.912,13.238,23.548,22.857,44.381,22.857c25.672,0,46.508-14.6,46.508-32.587
		c0-17.987-20.836-32.587-46.508-32.587c-0.274,0-0.539,0.019-0.812,0.022c-3.738-12.939-20.062-22.682-39.627-22.682
		c-14.995,0-28.078,5.743-35.061,14.245C856.994,59.442,838.969,49.941,817.808,49.941z"/>
	
		<path id="path3235" fill="#D7E6F4" stroke="#CBE0F4" stroke-width="4" stroke-linecap="round" stroke-linejoin="round" stroke-miterlimit="5" d="
		M619.609,162.63c-21.053,0-38.895,10.189-45.065,24.296c-3.78-7.071-13.067-12.065-23.935-12.065
		c-14.218,0-25.784,8.562-25.784,19.115c0,1.088,0.147,2.155,0.383,3.194c-16.103,6.055-27.154,18.435-27.154,32.742
		c0,20.262,22.167,36.716,49.464,36.716c16.569,0,31.215-6.083,40.189-15.377c0.898,0.049,1.795,0.065,2.709,0.071
		c4.828,11.516,19.332,19.896,36.429,19.896c13.899,0,26.039-5.535,32.699-13.792c0.426,0.008,0.847,0.023,1.274,0.023
		c28.435,0,51.535-17.124,51.535-38.23c0-21.003-22.878-38.087-51.12-38.254C653.188,170.04,637.553,162.63,619.609,162.63z"/>
	
		<path id="path3247" fill="#D7E6F4" stroke="#CBE0F4" stroke-width="4" stroke-linecap="round" stroke-linejoin="round" stroke-miterlimit="5" d="
		M64.006,123.622c-20.648,0-37.406,11.742-37.406,26.21c0,8.839,6.25,16.64,15.826,21.389c-3.563,3.052-5.724,6.95-5.724,11.198
		c0,9.775,11.319,17.707,25.271,17.707c7.023,0,13.371-2.015,17.953-5.259c8.474,9.936,23.981,16.589,41.691,16.589
		c16.863,0,31.742-6.031,40.44-15.187c2.573,0.445,5.233,0.72,7.944,0.877c7.371,6.959,19.186,11.483,32.496,11.483
		c10.416,0,19.945-2.76,27.116-7.297c6.888,2.827,14.903,4.449,23.457,4.449c25.671,0,46.476-14.6,46.476-32.587
		s-20.805-32.565-46.476-32.565c-12.2,0-23.322,3.287-31.62,8.678c-7.242-13.353-25.67-22.856-47.258-22.856
		c-18.621,0-34.89,7.063-43.661,17.575c-2.889-0.376-5.87-0.57-8.914-0.57c-7.326,0-14.256,1.138-20.486,3.178
		C98.873,133.674,83.106,123.622,64.006,123.622z"/>
	
		<path id="path3259" fill="#D7E6F4" stroke="#CBE0F4" stroke-width="4" stroke-linecap="round" stroke-linejoin="round" stroke-miterlimit="5" d="
		M821.404,271.218c-20.648,0-37.406,11.742-37.406,26.21c0,2.498,0.506,4.921,1.438,7.21c-25.866,1.549-46.194,16.759-46.194,35.282
		c0,19.552,22.639,35.414,50.542,35.414c7.406,0,14.427-1.126,20.767-3.134c3.202,7.207,12.81,12.447,24.146,12.447
		c13.537,0,24.594-7.479,25.239-16.853c4.952,1.261,10.287,1.95,15.857,1.95c14.393,0,27.247-4.588,35.779-11.79
		c6.577,3.244,14.591,5.15,23.238,5.15c22.322,0,40.44-12.694,40.44-28.336c0-15.641-18.118-28.335-40.44-28.335
		c-4.559,0-8.921,0.536-13.011,1.512c-6.659-13.211-24.631-22.703-45.757-22.703c-6.987,0-13.637,1.049-19.641,2.915
		C851.052,278.264,837.392,271.218,821.404,271.218z"/>
	
		<path id="svg_1" fill="#D7E6F4" stroke="#CBE0F4" stroke-width="4" stroke-linecap="round" stroke-linejoin="round" stroke-miterlimit="5" d="
		M393.158,29.941c-20.649,0-37.406,11.742-37.406,26.21c0,2.498,0.506,4.921,1.438,7.21c-25.867,1.549-46.195,16.759-46.195,35.282
		c0,19.551,22.639,35.414,50.542,35.414c7.406,0,14.426-1.126,20.767-3.134c3.202,7.208,12.81,12.447,24.146,12.447
		c13.537,0,24.594-7.479,25.239-16.853c4.951,1.26,10.287,1.951,15.857,1.951c14.393,0,27.247-4.588,35.779-11.79
		c6.576,3.243,14.591,5.15,23.238,5.15c22.322,0,40.439-12.694,40.439-28.335s-18.117-28.335-40.439-28.335
		c-4.559,0-8.922,0.536-13.011,1.512c-6.659-13.211-24.631-22.703-45.757-22.703c-6.987,0-13.637,1.049-19.642,2.915
		C422.806,36.987,409.146,29.941,393.158,29.941z"/>
</g>
</svg>
